<svg width="544" height="103" viewBox="0 0 544 103" fill="none" xmlns="http://www.w3.org/2000/svg">
<path d="M12.504 26.4V10.4H52.568V26.4H12.504ZM12.504 61.728V46.496H51.288V61.728H12.504ZM0.728001 10.4H18.392V100H0.728001V10.4ZM75.718 81.696C75.718 83.4027 76.1447 84.896 76.998 86.176C77.8513 87.3707 79.0033 88.3093 80.454 88.992C81.99 89.5893 83.654 89.888 85.446 89.888C88.006 89.888 90.31 89.376 92.358 88.352C94.406 87.2427 96.07 85.7067 97.35 83.744C98.63 81.696 99.27 79.264 99.27 76.448L101.318 84.128C101.318 87.8827 100.251 91.04 98.118 93.6C96.07 96.16 93.382 98.08 90.054 99.36C86.8113 100.64 83.398 101.28 79.814 101.28C76.1447 101.28 72.7313 100.555 69.574 99.104C66.4167 97.6533 63.8567 95.5627 61.894 92.832C60.0167 90.016 59.078 86.6027 59.078 82.592C59.078 76.8747 61.0833 72.352 65.094 69.024C69.1047 65.696 74.7793 64.032 82.118 64.032C85.8727 64.032 89.158 64.416 91.974 65.184C94.8753 65.952 97.3073 66.8907 99.27 68C101.233 69.1093 102.641 70.176 103.494 71.2V78.88C101.19 77.1733 98.5873 75.8933 95.686 75.04C92.87 74.1867 89.8833 73.76 86.726 73.76C84.166 73.76 82.0753 74.1013 80.454 74.784C78.8327 75.3813 77.638 76.2773 76.87 77.472C76.102 78.5813 75.718 79.9893 75.718 81.696ZM69.318 57.76L63.174 46.496C66.246 44.8747 70.0007 43.3387 74.438 41.888C78.8753 40.352 83.8247 39.584 89.286 39.584C94.3207 39.584 98.8007 40.3093 102.726 41.76C106.651 43.2107 109.723 45.344 111.942 48.16C114.161 50.8907 115.27 54.2613 115.27 58.272V100H99.27V61.728C99.27 60.1067 99.014 58.7413 98.502 57.632C97.99 56.4373 97.1793 55.456 96.07 54.688C95.046 53.92 93.8087 53.3653 92.358 53.024C90.9073 52.6827 89.286 52.512 87.494 52.512C84.7633 52.512 82.1607 52.8107 79.686 53.408C77.2113 54.0053 75.078 54.7307 73.286 55.584C71.494 56.4373 70.1713 57.1627 69.318 57.76ZM168.708 64.16C168.708 60.2347 167.94 57.248 166.404 55.2C164.868 53.152 162.393 52.128 158.98 52.128C156.676 52.128 154.628 52.64 152.836 53.664C151.044 54.6027 149.679 55.968 148.74 57.76C147.801 59.552 147.332 61.6853 147.332 64.16V100H130.692V41.12H147.332V50.08C149.124 46.752 151.471 44.2347 154.372 42.528C157.359 40.736 160.943 39.84 165.124 39.84C172.121 39.84 177.327 41.8453 180.74 45.856C184.153 49.7813 185.86 55.2853 185.86 62.368V100H168.708V64.16ZM205.136 79.648C207.611 81.952 209.915 83.8293 212.048 85.28C214.181 86.6453 216.187 87.6693 218.064 88.352C220.027 89.0347 221.861 89.376 223.568 89.376C225.787 89.376 227.493 88.9067 228.688 87.968C229.883 86.944 230.48 85.5787 230.48 83.872C230.48 82.336 229.968 81.056 228.944 80.032C228.005 78.9227 226.597 77.9413 224.72 77.088C222.843 76.2347 220.453 75.3387 217.552 74.4C214.821 73.376 212.176 72.1813 209.616 70.816C207.056 69.3653 204.923 67.488 203.216 65.184C201.595 62.7947 200.784 59.7653 200.784 56.096C200.784 52.5973 201.723 49.6533 203.6 47.264C205.477 44.7893 207.995 42.9547 211.152 41.76C214.395 40.48 217.979 39.84 221.904 39.84C225.232 39.84 228.347 40.2667 231.248 41.12C234.149 41.9733 236.837 43.1253 239.312 44.576C241.787 45.9413 243.963 47.5627 245.84 49.44L238.544 59.68C236.411 57.376 233.851 55.4987 230.864 54.048C227.963 52.5973 225.104 51.872 222.288 51.872C220.411 51.872 218.917 52.256 217.808 53.024C216.784 53.7067 216.272 54.7733 216.272 56.224C216.272 57.504 216.784 58.656 217.808 59.68C218.917 60.6187 220.453 61.472 222.416 62.24C224.464 63.008 226.768 63.9467 229.328 65.056C232.485 66.2507 235.387 67.616 238.032 69.152C240.763 70.6027 242.939 72.4373 244.56 74.656C246.181 76.8747 246.992 79.776 246.992 83.36C246.992 89.248 245.072 93.856 241.232 97.184C237.392 100.427 232.101 102.048 225.36 102.048C221.179 102.048 217.339 101.493 213.84 100.384C210.427 99.2747 207.312 97.824 204.496 96.032C201.765 94.1547 199.291 92.1493 197.072 90.016L205.136 79.648Z" fill="#4DB5FF"/>
<path d="M259.978 10.4H278.666V100H259.978V10.4ZM290.442 100H271.754V83.36H289.802C293.727 83.36 297.439 82.848 300.938 81.824C304.437 80.7147 307.509 79.008 310.154 76.704C312.799 74.4 314.847 71.4987 316.298 68C317.834 64.416 318.602 60.1493 318.602 55.2C318.602 50.2507 317.834 46.0267 316.298 42.528C314.847 38.944 312.799 36 310.154 33.696C307.509 31.392 304.437 29.728 300.938 28.704C297.439 27.5947 293.727 27.04 289.802 27.04H271.754V10.4H290.442C299.829 10.4 308.021 12.2347 315.018 15.904C322.101 19.5733 327.605 24.7787 331.53 31.52C335.455 38.176 337.418 46.0693 337.418 55.2C337.418 64.3307 335.455 72.2667 331.53 79.008C327.605 85.664 322.101 90.8267 315.018 94.496C308.021 98.1653 299.829 100 290.442 100ZM377.843 101.28C371.443 101.28 365.854 100 361.075 97.44C356.296 94.88 352.584 91.3387 349.939 86.816C347.379 82.208 346.099 76.7893 346.099 70.56C346.099 64.2453 347.379 58.8267 349.939 54.304C352.584 49.696 356.296 46.1547 361.075 43.68C365.854 41.12 371.486 39.84 377.971 39.84C384.456 39.84 389.96 41.0347 394.483 43.424C399.091 45.728 402.59 49.1413 404.979 53.664C407.368 58.1013 408.563 63.4773 408.563 69.792C408.563 70.56 408.52 71.3707 408.435 72.224C408.435 73.0773 408.392 73.76 408.307 74.272H355.571V64.032H393.843L389.363 69.92C389.704 69.408 390.003 68.7253 390.259 67.872C390.6 66.9333 390.771 66.1653 390.771 65.568C390.771 62.6667 390.216 60.192 389.107 58.144C388.083 56.096 386.59 54.4747 384.627 53.28C382.664 52.0853 380.36 51.488 377.715 51.488C374.472 51.488 371.742 52.2133 369.523 53.664C367.39 55.0293 365.726 57.12 364.531 59.936C363.422 62.6667 362.824 66.08 362.739 70.176C362.739 74.1013 363.294 77.4293 364.403 80.16C365.598 82.8907 367.347 84.9813 369.651 86.432C371.955 87.8827 374.728 88.608 377.971 88.608C381.64 88.608 384.755 87.9253 387.315 86.56C389.96 85.1093 392.136 82.976 393.843 80.16L408.307 84.64C405.235 90.1867 401.139 94.368 396.019 97.184C390.984 99.9147 384.926 101.28 377.843 101.28ZM433.611 70.56C433.611 73.9733 434.379 76.96 435.915 79.52C437.451 82.08 439.499 84.0853 442.059 85.536C444.704 86.9867 447.606 87.712 450.763 87.712C453.323 87.712 455.798 87.328 458.187 86.56C460.576 85.7067 462.71 84.5973 464.587 83.232C466.55 81.7813 468.043 80.1173 469.067 78.24V95.264C467.019 97.1413 464.331 98.6347 461.003 99.744C457.76 100.768 453.963 101.28 449.611 101.28C443.382 101.28 437.75 100 432.715 97.44C427.766 94.88 423.84 91.296 420.939 86.688C418.123 81.9947 416.715 76.6187 416.715 70.56C416.715 64.416 418.123 59.04 420.939 54.432C423.84 49.824 427.766 46.24 432.715 43.68C437.75 41.12 443.382 39.84 449.611 39.84C453.963 39.84 457.76 40.3947 461.003 41.504C464.331 42.528 467.019 43.936 469.067 45.728V62.752C468.043 60.8747 466.507 59.2533 464.459 57.888C462.496 56.4373 460.32 55.328 457.931 54.56C455.542 53.792 453.152 53.408 450.763 53.408C447.606 53.408 444.704 54.176 442.059 55.712C439.499 57.1627 437.451 59.168 435.915 61.728C434.379 64.288 433.611 67.232 433.611 70.56ZM483.308 0.159996H499.308V100H483.308V0.159996ZM520.94 41.12H540.78L515.436 65.44L543.34 100H523.628L495.596 65.44L520.94 41.12Z" fill="#4D94FF"/>
</svg>
